# xmcd
#
# Track frame offsets: 
#        150
#        16782
#        33612
#        44025
#        62389
#        73810
#        96820
#        111417
#        130155
#        143462
#        160622
#        171957
#        187617
#        199357
#        211110
#        224075
#        241072
#        260650
#
# Disc length: 3769 seconds
#
# Revision: 1
# Processed by: cddbd v1.5.2PL0 Copyright (c) Steve Scherf et al.
# Submitted via: ExactAudioCopy v0.99pb4
#
DISCID=040eb712
DTITLE=диажояяои - еккгмым паяадысеис мО 11 - 18 вояои тгс кебемтиас
DYEAR=1900
DGENRE=дглотийа
TTITLE0=бекоуви лоу пеягжамо
TTITLE1=ема лийяо бкавопоуко
TTITLE2=стом туямабо яивмеи бяовг
TTITLE3=ма 'лоум паиди ста 18
TTITLE4=стис пкациес йаи ста кеибадиа
TTITLE5=фаваяоука
TTITLE6=тыяа то бяаду бяаду
TTITLE7=хекы ма свисы та боума
TTITLE8=цуяы стоу выяиоу т' акымиа
TTITLE9=с' ема демтяи стом паямасо
TTITLE10=коукоуди ти лаяахгйес
TTITLE11=паидиа л' циати 'сте амакаца
TTITLE12=цуяиса выяес йаи выяиа
TTITLE13=жуцам та кациа пяобата
TTITLE14=лпеядеутийе лиа келомиа
TTITLE15=дуо бкавопоукес
TTITLE16=есеис боума тгс йояутсас
TTITLE17=лиа йоййиможояелемг
EXTD=
EXTT0=
EXTT1=
EXTT2=
EXTT3=
EXTT4=
EXTT5=
EXTT6=
EXTT7=
EXTT8=
EXTT9=
EXTT10=
EXTT11=
EXTT12=
EXTT13=
EXTT14=
EXTT15=
EXTT16=
EXTT17=
PLAYORDER=
